:SAMPLES-PER-SECOND 30
:FULLY-SPECIFIED
:DEGREES
506
root  31.3413 38.0883 4.93718 -179.109 -72.0315 169.346
RightUpLeg  -15.4231 -7.09646 -5.74473
RightLeg  2.05661 -3.72786 -0.286851
RightFoot  -8.97485 -0.16708 5.13363
RightToes  4.01633e-009 0 -3.6325e-017
Spine  7.88616 -1.45515 -0.335198
Spine1  14.8488 -2.19241 1.11464
HEad  -2.03759 1.2131 -13.0801
LeftShoulder1  0.660781 1.61185 -28.8098
LeftArm  -5.9345 -5.72682 -37.6266
LeftForeArm  37.1756 -75.9886 -48.9062
LeftHand  0.0647475 2.34647 -3.02719
RightShoulder  -0.415283 -4.70387 27.6341
RightArm  -18.6695 -12.5955 37.3765
RightForeArm  104.534 75.6448 129.309
RightHand  -0.184281 -0.0195788 -4.00851
LeftUpLeg  17.6758 6.12934 -3.94275
LeftLeg  12.9171 -10.4876 -1.15865
LeftFoot  -19.1862 0.688707 8.34777
LeftToes  -1.95724e-009 9.62483e-011 3.51777e-011
507
root  29.9251 37.7508 4.31229 -176.381 -74.3216 166.585
RightUpLeg  -16.1819 -7.22774 -6.2806
RightLeg  -0.129463 -1.06902 -0.702043
RightFoot  -8.8222 -0.193412 5.50141
RightToes  4.01633e-009 0 -3.6325e-017
Spine  6.77333 -1.45142 -0.205574
Spine1  15.4237 -2.16479 1.10508
HEad  -1.51774 0.220762 -12.4921
LeftShoulder1  0.657352 1.63539 -29.0845
LeftArm  -5.95405 -5.37826 -37.1135
LeftForeArm  38.4973 -76.317 -50.693
LeftHand  0.0470408 2.55764 -2.57799
RightShoulder  -0.408626 -4.68192 27.7002
RightArm  -19.5029 -12.8377 37.8997
RightForeArm  107.663 75.0413 132.218
RightHand  -0.138302 -0.762634 -3.40849
LeftUpLeg  20.2804 6.00145 -3.41688
LeftLeg  12.9163 -12.291 -1.19227
LeftFoot  -20.9195 0.811367 8.16963
LeftToes  -1.95724e-009 9.62483e-011 3.51777e-011
508
root  28.4704 37.3785 3.59846 -176.31 -75.7578 166.123
RightUpLeg  -17.0674 -6.85515 -5.86045
RightLeg  3.0751 0.0333831 -0.971365
RightFoot  -7.22119 -0.102463 3.92361
RightToes  4.01633e-009 0 -3.6325e-017
Spine  6.49946 -1.15298 0.398193
Spine1  15.8349 -1.90675 1.30147
HEad  -1.24074 -0.904561 -12.5703
LeftShoulder1  0.57892 1.87267 -29.3786
LeftArm  -6.12613 -5.05792 -36.4434
LeftForeArm  39.3246 -76.5488 -52.1666
LeftHand  0.0433523 2.32988 -2.17615
RightShoulder  -0.422905 -4.71886 27.8332
RightArm  -19.8004 -12.2375 38.3105
RightForeArm  109.72 74.693 133.8
RightHand  -0.124226 -1.36292 -3.40974
LeftUpLeg  23.0043 5.74126 -2.00323
LeftLeg  13.918 -13.3058 -1.64069
LeftFoot  -22.659 0.890805 7.59688
LeftToes  -1.95724e-009 9.62483e-011 3.51777e-011
509
root  27.0749 37.2098 2.97129 -177.76 -78.6155 167.926
RightUpLeg  -19.261 -7.89492 -5.41934
RightLeg  10.2821 -1.29883 -0.380805
RightFoot  1.42419 0.150927 -1.79576
RightToes  4.01633e-009 0 -3.6325e-017
Spine  6.17725 -1.70825 2.25219
Spine1  16.1865 -2.46986 1.53975
HEad  -1.79929 -1.50068 -12.263
LeftShoulder1  0.566159 1.9033 -29.2748
LeftArm  -6.70745 -4.1691 -35.7724
LeftForeArm  40.849 -76.828 -53.8496
LeftHand  0.0382548 2.42563 -2.08789
RightShoulder  -0.476414 -4.85986 28.25
RightArm  -19.3038 -11.2465 38.351
RightForeArm  111.112 74.5713 134.456
RightHand  -0.107187 -1.44642 -2.95248
LeftUpLeg  24.2546 1.93933 -1.22491
LeftLeg  15.46 -12.8184 -2.10017
LeftFoot  -23.0103 0.749965 5.99623
LeftToes  -1.95724e-009 9.62483e-011 3.51777e-011
510
root  25.5452 36.9727 2.3017 176.899 -80.0372 173.176
RightUpLeg  -20.4139 -9.18014 -4.67342
RightLeg  17.1936 -0.394181 -0.271926
RightFoot  5.41256 -0.105296 1.03159
RightToes  4.01633e-009 0 -3.6325e-017
Spine  6.30947 -1.94823 5.15626
Spine1  16.0239 -2.12843 0.356076
HEad  -2.03258 -1.57882 -12.4397
LeftShoulder1  0.535606 2.00648 -29.668
LeftArm  -6.97107 -3.20199 -34.9188
LeftForeArm  40.4531 -76.7261 -53.1334
LeftHand  0.0499934 2.71081 -2.88088
RightShoulder  -0.486011 -4.87968 28.442
RightArm  -18.3489 -10.5259 38.3007
RightForeArm  111.328 74.7464 133.915
RightHand  -0.0945599 -1.56594 -2.61569
LeftUpLeg  25.3924 -2.35182 -0.615888
LeftLeg  18.7665 -10.8718 -3.42226
LeftFoot  -23.0492 0.4861 3.40706
LeftToes  -1.95724e-009 9.62483e-011 3.51777e-011
511
root  23.9798 36.8201 1.60908 166.084 -80.4614 -176.434
RightUpLeg  -20.2027 -10.6387 -2.68497
RightLeg  22.9666 0.913927 0.177916
RightFoot  4.98951 -0.0934067 0.850378
RightToes  4.01633e-009 0 -3.6325e-017
Spine  7.23309 -2.17731 9.12318
Spine1  15.5213 -1.45087 -1.16458
HEad  -2.27222 -1.50818 -11.691
LeftShoulder1  0.547679 1.96023 -29.4035
LeftArm  -7.40338 -1.04659 -34.259
LeftForeArm  40.8879 -76.786 -53.4545
LeftHand  0.050123 2.68487 -2.9018
RightShoulder  -0.51319 -4.94632 28.7296
RightArm  -16.617 -9.40313 38.3699
RightForeArm  108.971 75.5024 130.783
RightHand  -0.13172 -0.904731 -3.32697
LeftUpLeg  25.7645 -3.16671 2.28099
LeftLeg  24.3772 -11.5102 -5.46019
LeftFoot  -20.8758 0.142639 0.12639
LeftToes  -1.95724e-009 9.62483e-011 3.51777e-011
512
root  22.71 36.8097 0.744103 159.694 -81.5149 -169.082
RightUpLeg  -21.1411 -10.5891 -1.11439
RightLeg  27.6593 -0.224376 -0.365095
RightFoot  2.80208 0.279588 -2.0657
RightToes  4.01633e-009 0 -3.6325e-017
Spine  7.9033 -1.89706 8.72846
Spine1  14.325 -1.57055 2.13582
HEad  -1.3352 -1.16547 -11.304
LeftShoulder1  0.446406 2.27955 -30.3415
LeftArm  -7.38849 0.601929 -32.8443
LeftForeArm  40.1133 -76.6909 -52.9886
LeftHand  0.0454462 2.50309 -2.59034
RightShoulder  -0.484296 -4.86375 28.7212
RightArm  -14.9878 -8.74822 38.1984
RightForeArm  106.591 76.1793 127.549
RightHand  -0.115098 -0.81248 -2.83237
LeftUpLeg  21.4795 -1.69565 6.75711
LeftLeg  33.6148 -13.938 -9.40128
LeftFoot  -14.6221 -0.0155051 -4.53928
LeftToes  -1.95724e-009 9.62483e-011 3.51777e-011
513
root  21.3853 36.9287 0.0612834 141.127 -83.7809 -150.124
RightUpLeg  -19.7331 -12.0041 0.116284
RightLeg  30.1287 -1.74265 -1.33675
RightFoot  -0.856898 0.178814 -2.00523
RightToes  4.01633e-009 0 -3.6325e-017
Spine  8.08823 -2.70583 10.9212
Spine1  13.993 -1.89188 2.07927
HEad  -1.72816 -1.58931 -10.3463
LeftShoulder1  0.439994 2.29438 -30.2903
LeftArm  -7.89282 1.42258 -32.6293
LeftForeArm  40.0434 -76.6503 -52.6717
LeftHand  0.0464334 2.73352 -2.75018
RightShoulder  -0.442846 -4.75217 28.5304
RightArm  -14.0281 -8.68538 38.5759
RightForeArm  104.797 76.3715 126.28
RightHand  -0.136965 -1.11422 -3.57773
LeftUpLeg  15.4017 -3.59092 9.17381
LeftLeg  43.994 -10.7786 -10.4799
LeftFoot  -2.86997 0.601378 -8.12936
LeftToes  -1.95724e-009 9.62483e-011 3.51777e-011
514
root  20.1425 37.0716 -0.540019 107.097 -84.6563 -115.624
RightUpLeg  -17.9358 -13.8487 1.69604
RightLeg  31.1961 -3.05214 -2.24531
RightFoot  -3.79462 0.105241 -1.98379
RightToes  4.01633e-009 0 -3.6325e-017
Spine  8.01469 -3.39948 13.8662
Spine1  14.0767 -1.95052 1.45132
HEad  -2.56696 -3.27383 -9.32184
LeftShoulder1  0.509267 2.0918 -29.9559
LeftArm  -8.44421 1.47998 -32.9053
LeftForeArm  39.6669 -76.5447 -51.9727
LeftHand  0.0622407 2.38578 -2.98662
RightShoulder  -0.396892 -4.62809 28.2585
RightArm  -13.7016 -9.1408 38.5759
RightForeArm  105.498 76.2681 126.905
RightHand  -0.11471 -1.49933 -3.2059
LeftUpLeg  7.8128 -5.4109 11.2393
LeftLeg  53.8836 -5.91206 -8.14413
LeftFoot  10.1601 1.4575 -8.08883
LeftToes  -1.95724e-009 9.62483e-011 3.51777e-011
515
root  18.9673 37.3266 -1.15106 69.6957 -85.1331 -78.801
RightUpLeg  -14.6639 -16.706 1.19271
RightLeg  31.2895 -3.38032 -2.47514
RightFoot  -6.34827 0.0436086 -1.99044
RightToes  4.01633e-009 0 -3.6325e-017
Spine  8.75361 -3.67777 13.829
Spine1  14.4338 -2.05674 2.04491
HEad  -4.48629 -4.39627 -7.11569
LeftShoulder1  0.542613 1.99518 -29.8886
LeftArm  -8.27914 0.236776 -33.2991
LeftForeArm  38.1486 -76.2327 -50.2211
LeftHand  0.0601393 2.28283 -2.77538
RightShoulder  -0.370657 -4.56809 27.7342
RightArm  -13.532 -9.26143 38.6305
RightForeArm  103.877 76.3071 126.354
RightHand  -0.143497 -1.15507 -3.79912
LeftUpLeg  1.71323 -7.33447 10.7425
LeftLeg  61.0941 -2.60108 -4.6075
LeftFoot  12.4843 1.2329 -6.10202
LeftToes  -1.95724e-009 9.62483e-011 3.51777e-011
516
root  17.7024 37.753 -1.70523 38.7544 -85.5873 -49.0868
RightUpLeg  -9.80286 -19.8318 -1.26195
RightLeg  29.9324 -2.2002 -1.63547
RightFoot  -8.36567 -0.00362742 -2.03336
RightToes  4.01633e-009 0 -3.6325e-017
Spine  10.4828 -3.64617 13.4211
Spine1  13.5696 -1.24474 0.393507
HEad  -8.26448 -3.41448 -2.52686
LeftShoulder1  0.608442 1.78333 -29.248
LeftArm  -7.95426 -0.181061 -33.6548
LeftForeArm  37.1705 -76.0302 -49.1831
LeftHand  0.0487671 2.43658 -2.50647
RightShoulder  -0.451357 -4.77917 28.47
RightArm  -13.3156 -8.89871 37.6998
RightForeArm  103.31 76.5869 124.919
RightHand  -0.105391 -1.52024 -2.9584
LeftUpLeg  -2.44704 -8.02502 7.99315
LeftLeg  64.7956 -1.46499 -2.79061
LeftFoot  8.12748 0.551882 -3.54693
LeftToes  -1.95724e-009 9.62483e-011 3.51777e-011
517
root  16.3737 38.152 -2.19939 14.7089 -85.8174 -26.1126
RightUpLeg  -4.84387 -21.9901 -3.91056
RightLeg  28.1988 -0.723506 -0.652931
RightFoot  -10.001 -0.0447573 -1.96372
RightToes  4.01633e-009 0 -3.6325e-017
Spine  11.9134 -3.41326 13.0154
Spine1  12.7573 -0.357394 -1.14624
HEad  -6.40893 -4.65583 -2.90817
LeftShoulder1  0.542819 1.9686 -29.247
LeftArm  -7.8224 -0.0359096 -33.3229
LeftForeArm  37.4988 -76.0785 -49.3868
LeftHand  0.0695608 2.30897 -3.16924
RightShoulder  -0.434423 -4.73211 28.4082
RightArm  -13.0715 -8.77632 38.049
RightForeArm  101.857 76.8447 123.282
RightHand  -0.101514 -1.70092 -2.9331
LeftUpLeg  -5.43743 -7.8666 4.91324
LeftLeg  64.8588 -1.23155 -2.21895
LeftFoot  6.61637 0.378564 -2.66051
LeftToes  -1.95724e-009 9.62483e-011 3.51777e-011
518
root  15.0236 38.4587 -2.66001 -2.16612 -85.5573 -9.9809
RightUpLeg  -0.165098 -23.025 -6.13952
RightLeg  26.2603 -0.137168 0.181808
RightFoot  -11.38 -0.0773588 -1.82859
RightToes  4.01633e-009 0 -3.6325e-017
Spine  12.557 -3.1368 13.2723
Spine1  12.4886 0.567188 -3.04312
HEad  -4.9409 -5.42788 -3.46704
LeftShoulder1  0.513235 2.04821 -29.1483
LeftArm  -8.03254 0.0968359 -33.0365
LeftForeArm  37.4455 -76.1114 -49.6407
LeftHand  0.085739 2.22528 -3.66277
RightShoulder  -0.408195 -4.66469 28.1599
RightArm  -12.8879 -8.57045 38.6246
RightForeArm  100.303 77.0218 121.955
RightHand  -0.125705 -1.35358 -3.45132
LeftUpLeg  -8.04094 -7.75782 2.10177
LeftLeg  62.4652 -1.38368 -2.28913
LeftFoot  4.36046 0.31511 -2.47189
LeftToes  -1.95724e-009 9.62483e-011 3.51777e-011
519
root  13.6772 38.7086 -3.07564 -15.8062 -84.7006 3.07212
RightUpLeg  4.56063 -22.6353 -8.50871
RightLeg  24.0607 -0.892515 1.3328
RightFoot  -12.6917 -0.103852 -1.53115
RightToes  4.01633e-009 0 -3.6325e-017
Spine  13.1477 -3.08113 13.3316
Spine1  11.9552 1.11857 -5.05938
HEad  -4.62274 -5.29433 -3.1294
LeftShoulder1  0.51357 2.03631 -28.8764
LeftArm  -8.5369 0.798533 -32.7833
LeftForeArm  38.5656 -76.3912 -51.2404
LeftHand  0.0569801 2.56252 -2.9997
RightShoulder  -0.384916 -4.60967 27.7711
RightArm  -12.6165 -8.48369 39.436
RightForeArm  100.674 77.044 121.93
RightHand  -0.108173 -1.69751 -3.15847
LeftUpLeg  -10.097 -8.00273 -0.837018
LeftLeg  57.5205 -1.65317 -2.28034
LeftFoot  2.03152 0.217021 -1.95722
LeftToes  -1.95724e-009 9.62483e-011 3.51777e-011
520
root  12.3529 38.8744 -3.49976 -22.9307 -83.7163 9.74802
RightUpLeg  8.88358 -20.6068 -9.75378
RightLeg  21.5552 -3.33123 2.05013
RightFoot  -13.8201 -0.122927 -1.34837
RightToes  4.01633e-009 0 -3.6325e-017
Spine  13.7999 -3.03109 12.7973
Spine1  11.2814 1.26812 -6.27493
HEad  -3.79974 -5.6023 -3.56554
LeftShoulder1  0.45594 2.20059 -28.8631
LeftArm  -9.07453 1.54976 -32.0441
LeftForeArm  40.256 -76.6976 -52.9705
LeftHand  0.0728994 2.34497 -3.35247
RightShoulder  -0.371293 -4.5735 27.6489
RightArm  -11.722 -7.86097 39.9576
RightForeArm  99.3695 77.1801 120.834
RightHand  -0.107152 -1.64918 -3.08048
LeftUpLeg  -11.4436 -7.69432 -3.06021
LeftLeg  50.2405 -1.91185 -2.03879
LeftFoot  0.727724 0.160366 -1.56541
LeftToes  -1.95724e-009 9.62483e-011 3.51777e-011
